 http://img542.imageshack.us/img542/8044/brokenhillmovieposter20.jpg

Country.......: USA, Australia
Genre.........: Drama, Family, Music
Date release..: 04.09.2009 [World]
Director......: Dagen Merrill
Writers.......: Dagen Merrill
Duration......: 103 min.
More..........: http://www.imdb.com/title/tt1212909
Trailer.......: http://www.imdb.com/video/imdb/vi2585395737
Trailer.......:

Pilot :
Tommmy McAlpine always dreamed of escaping his unpleasant dad's prospect-less sheep farming but never got an opportunity to try his special gift, music, 'sissy' by Sir's Outback standards. When Tommy and spoiled-rotten rich schoolmate Kat are sentenced to community service for a childish watermelons prank, Tommy chooses volunteering as prison training volunteer and manages to turn it into an opportunity to train a cons band so as to execute his premier composition. Key proves bloody habitual criminal Kalai Takalua, who wants the project to succeed because entering a regional competition would yield a ticket for the national finale in Sidney. In time, hidden agendas take over.

Cats :
Alexa Vega   	 ...  	Kat Rogers
Timothy Hutton 	... 	George McAlpine
Rhys Wakefield 	... 	Scott Price
Andy McPhee 	... 	Bear
Luke Arnold 	... 	Tommy McAlpine
Phil Austin 	... 	Officer Dixon
George Kapiniaris 	... 	Ricardo Romero
Maud Davey 	... 	Dinitee Haskard
Luke O Loughlin 	... 	Fuzz
Che Timmins 	... 	Kalai Takalua
Peter Lamb 	... 	Officer Jack Taylor
Adam Morgan 	... 	Bob
Rebekah Rimington 	... 	Stage Mother
Adrian Medhurst 	... 	Additional player
Klayton Stainer 	... 	Watermelon Thief 

Data Technical :
!!! SAMPLE !!!
Audio.....: English
Subtitles.: English .sub
Format                           : AVI
Format/Info                      : Audio Video Interleave
File size                        : 700 MiB
Duration                         : 1h 42mn
Overall bit rate                 : 955 Kbps
Writing application              : VirtualDubMod 1.5.10.2 (build 2540/release)
Writing library                  : VirtualDubMod build 2540/release
Video
ID                               : 0
Format                           : MPEG-4 Visual
Format profile                   : Advanced Simple@L5
Format settings, BVOP            : Yes
Format settings, QPel            : No
Format settings, GMC             : No warppoints
Format settings, Matrix          : Default (MPEG)
Codec ID                         : XVID
Codec ID/Hint                    : XviD
Duration                         : 1h 42mn
Bit rate                         : 814 Kbps
Width                            : 640 pixels
Height                           : 272 pixels
Display aspect ratio             : 2.35:1
Frame rate                       : 23.976 fps
Color space                      : YUV
Chroma subsampling               : 4:2:0
Bit depth                        : 8 bits
Scan type                        : Progressive
Bits/(Pixel*Frame)               : 0.195
Stream size                      : 597 MiB (85%)
Writing library                  : XviD 1.2.1 (UTC 2008-12-04)
Audio
ID                               : 1
Format                           : MPEG Audio
Format version                   : Version 1
Format profile                   : Layer 3
Mode                             : Joint stereo
Mode extension                   : MS Stereo
Codec ID                         : 55
Codec ID/Hint                    : MP3
Duration                         : 1h 42mn
Bit rate mode                    : Variable
Bit rate                         : 128 Kbps
Channel(s)                       : 2 channels
Sampling rate                    : 48.0 KHz
Stream size                      : 93.7 MiB (13%)
Alignment                        : Aligned on interleaves
Interleave, duration             : 24 ms (0.58 video frame)
Interleave, preload duration     : 495 ms
Writing library                  : LAME3.90.
Encoding settings                : -m j -V 4 -q 2 -lowpass 17.6 --abr 128

Screen : 
http://img684.imageshack.us/img684/733/brokenhill2009s1.jpg 
http://img853.imageshack.us/img853/2388/brokenhill2009s2.jpg 
http://img23.imageshack.us/img23/2383/brokenhill2009s3.jpg 
http://img151.imageshack.us/img151/5835/brokenhill2009s4.jpg 
http://img29.imageshack.us/img29/2034/brokenhill2009s5.jpg